# Blender v3.2.0 OBJ File: ''
# www.blender.org
mtllib Grass.mtl
o Cube.012_Cube.015
v -0.213445 -0.504654 0.310797
v -0.213445 -0.341524 0.310797
v -0.319218 -0.341524 0.335043
v -0.319218 -0.504654 0.335043
v -0.440313 -0.341524 0.362800
v -0.440313 -0.504654 0.362800
v -0.343464 -0.504654 0.229270
v -0.343464 -0.341524 0.229270
v -0.237691 -0.341524 0.205024
v -0.237691 -0.504654 0.205024
v -0.319218 -1.042981 0.335043
v -0.343464 -1.042981 0.229270
v -0.237691 -1.042981 0.205024
v -0.213445 -1.042981 0.310797
v -0.464558 -0.341524 0.257027
v -0.464558 -0.504654 0.257027
v -0.319218 -0.147221 0.335043
v -0.440313 -0.147221 0.362800
v -0.343464 -0.147221 0.229270
v -0.464558 -0.147221 0.257027
v -0.236510 -0.970210 0.089186
v -0.236510 -0.861694 0.089186
v -0.236510 -0.861694 -0.019330
v -0.236510 -0.970210 -0.019330
v -0.127994 -0.861694 -0.019330
v -0.127994 -0.970210 -0.019330
v -0.127994 -0.861694 0.089186
v -0.127994 -0.970210 0.089186
v -0.236510 -0.995289 -0.149074
v -0.236510 -0.663237 -0.149074
v -0.236510 -0.663237 -0.257590
v -0.236510 -0.995289 -0.257590
v -0.127994 -0.663237 -0.257590
v -0.127994 -0.995289 -0.257590
v -0.127994 -0.663237 -0.149074
v -0.127994 -0.995289 -0.149074
v 0.018862 -0.431883 -0.032969
v 0.018862 -0.268754 -0.032969
v 0.018862 -0.268754 -0.141485
v 0.018862 -0.431883 -0.141485
v 0.018862 -0.268754 -0.265721
v 0.018862 -0.431883 -0.265721
v 0.127378 -0.431883 -0.141485
v 0.127378 -0.268754 -0.141485
v 0.127378 -0.268754 -0.032969
v 0.127378 -0.431883 -0.032969
v 0.018862 -0.970210 -0.141485
v 0.127378 -0.970210 -0.141485
v 0.127378 -0.970210 -0.032969
v 0.018862 -0.970210 -0.032969
v 0.127378 -0.268754 -0.265721
v 0.127378 -0.431883 -0.265721
v 0.018862 -0.074450 -0.141485
v 0.018862 -0.074450 -0.265721
v 0.127378 -0.074450 -0.141485
v 0.127378 -0.074450 -0.265721
v 0.186406 -0.970210 0.061969
v 0.186406 -0.596141 0.061969
v 0.231175 -0.596141 -0.036882
v 0.231175 -0.970210 -0.036882
v 0.330026 -0.596141 0.007887
v 0.330026 -0.970210 0.007887
v 0.285257 -0.596141 0.106738
v 0.285257 -0.970210 0.106738
v 0.394793 -0.596141 0.156345
v 0.439561 -0.596141 0.057494
v 0.533016 -0.596141 0.099819
v 0.488248 -0.596141 0.198670
v 0.330026 -0.482363 0.007887
v 0.231175 -0.482363 -0.036882
v 0.186406 -0.482363 0.061969
v 0.285257 -0.482363 0.106738
v 0.286075 -0.596141 -0.158104
v 0.384926 -0.596141 -0.113336
v 0.533016 -0.482363 0.099819
v 0.488248 -0.482363 0.198670
v 0.394793 -0.482363 0.156345
v 0.439561 -0.482363 0.057494
v 0.439561 -0.330533 0.057494
v 0.533016 -0.330533 0.099819
v 0.394793 -0.330533 0.156345
v 0.488248 -0.330533 0.198670
v 0.286075 -0.482363 -0.158104
v 0.384926 -0.482363 -0.113336
v 0.459329 -0.970210 -0.032969
v 0.459329 -0.861694 -0.032969
v 0.459329 -0.861694 -0.141485
v 0.459329 -0.970210 -0.141485
v 0.567845 -0.861694 -0.141485
v 0.567845 -0.970210 -0.141485
v 0.567845 -0.861694 -0.032969
v 0.567845 -0.970210 -0.032969
v 0.203958 -0.995289 -0.149074
v 0.203958 -0.663237 -0.149074
v 0.203958 -0.663237 -0.257591
v 0.203958 -0.995289 -0.257591
v 0.312474 -0.663237 -0.257591
v 0.312474 -0.995289 -0.257591
v 0.312474 -0.663237 -0.149074
v 0.312474 -0.995289 -0.149074
v 0.117128 -0.431883 0.061073
v 0.117128 -0.268754 0.061073
v 0.135978 -0.268754 0.167940
v 0.135978 -0.431883 0.167940
v 0.157558 -0.268754 0.290286
v 0.157558 -0.431883 0.290286
v 0.029112 -0.431883 0.186790
v 0.029112 -0.268754 0.186790
v 0.010262 -0.268754 0.079923
v 0.010262 -0.431883 0.079923
v 0.135978 -0.970210 0.167940
v 0.029112 -0.970210 0.186790
v 0.010262 -0.970210 0.079923
v 0.117128 -0.970210 0.061073
v 0.050692 -0.268754 0.309136
v 0.050692 -0.431883 0.309136
v 0.135978 -0.074450 0.167940
v 0.157558 -0.074450 0.290286
v 0.029112 -0.074450 0.186790
v 0.050692 -0.074450 0.309136
v 0.350107 -1.013095 0.405209
v 0.350107 -0.681043 0.405209
v 0.350107 -0.681043 0.296692
v 0.350107 -1.013095 0.296692
v 0.458624 -0.681043 0.296692
v 0.458624 -1.013095 0.296692
v 0.458624 -0.681043 0.405209
v 0.458624 -1.013095 0.405209
v -0.090360 -1.013095 0.405208
v -0.090360 -0.681043 0.405208
v -0.090360 -0.681043 0.296692
v -0.090360 -1.013095 0.296692
v 0.018156 -0.681043 0.296692
v 0.018156 -1.013095 0.296692
v 0.018156 -0.681043 0.405208
v 0.018156 -1.013095 0.405208
v -0.067605 -1.024110 -0.414984
v -0.067605 -0.650041 -0.414984
v -0.022836 -0.650041 -0.513835
v -0.022836 -1.024110 -0.513835
v 0.076015 -0.650041 -0.469066
v 0.076015 -1.024110 -0.469066
v 0.031246 -0.650041 -0.370215
v 0.031246 -1.024110 -0.370215
v 0.140781 -0.650041 -0.320608
v 0.185550 -0.650041 -0.419458
v 0.279005 -0.650041 -0.377133
v 0.234237 -0.650041 -0.278283
v 0.076015 -0.536263 -0.469066
v -0.022836 -0.536263 -0.513835
v -0.067605 -0.536263 -0.414984
v 0.031246 -0.536263 -0.370215
v 0.032064 -0.650041 -0.635057
v 0.130915 -0.650041 -0.590289
v 0.279005 -0.536263 -0.377133
v 0.234237 -0.536263 -0.278283
v 0.140781 -0.536263 -0.320608
v 0.185550 -0.536263 -0.419458
v 0.185550 -0.384433 -0.419458
v 0.279005 -0.384433 -0.377133
v 0.140781 -0.384433 -0.320608
v 0.234237 -0.384433 -0.278283
v 0.032064 -0.536263 -0.635057
v 0.130915 -0.536263 -0.590289
v -0.308875 -1.023738 -0.138812
v -0.308875 -0.649668 -0.138812
v -0.268762 -0.649668 -0.037982
v -0.268762 -1.023738 -0.037982
v -0.369592 -0.649668 0.002131
v -0.369592 -1.023738 0.002131
v -0.409705 -0.649668 -0.098699
v -0.409705 -1.023738 -0.098699
v -0.521434 -0.649668 -0.054251
v -0.481321 -0.649668 0.046579
v -0.576647 -0.649668 0.084503
v -0.616760 -0.649668 -0.016328
v -0.369592 -0.535890 0.002131
v -0.268762 -0.535890 -0.037982
v -0.308875 -0.535890 -0.138812
v -0.409705 -0.535890 -0.098699
v -0.219571 -0.649668 0.085667
v -0.320401 -0.649668 0.125780
v -0.576647 -0.535890 0.084503
v -0.616760 -0.535890 -0.016328
v -0.521434 -0.535890 -0.054251
v -0.481321 -0.535890 0.046579
v -0.481321 -0.384060 0.046579
v -0.576647 -0.384060 0.084503
v -0.521434 -0.384060 -0.054251
v -0.616760 -0.384060 -0.016328
v -0.219571 -0.535890 0.085667
v -0.320401 -0.535890 0.125780
vt 0.018719 0.972130
vt 0.019617 0.972130
vt 0.019617 0.975991
vt 0.018719 0.975991
vt 0.019617 0.975991
vt 0.018719 0.975991
vt 0.018719 0.979853
vt 0.019617 0.979853
vt 0.019617 0.983714
vt 0.018719 0.983714
vt 0.019617 0.987576
vt 0.018719 0.987576
vt 0.011894 0.979853
vt 0.015756 0.979853
vt 0.015756 0.983714
vt 0.011894 0.983714
vt 0.023479 0.979853
vt 0.023479 0.983714
vt 0.015756 0.987576
vt 0.015756 0.975991
vt 0.015756 0.972130
vt 0.019617 0.979853
vt 0.018719 0.979853
vt 0.019617 0.975991
vt 0.019617 0.975991
vt 0.023479 0.979853
vt 0.019617 0.979853
vt 0.019617 0.979853
vt 0.023479 0.979853
vt 0.015756 0.972130
vt 0.019617 0.972130
vt 0.019617 0.975991
vt 0.015756 0.975991
vt 0.019617 0.979853
vt 0.015756 0.979853
vt 0.019617 0.983714
vt 0.015756 0.983714
vt 0.019617 0.987576
vt 0.015756 0.987576
vt 0.011894 0.979853
vt 0.011894 0.983714
vt 0.023479 0.979853
vt 0.023479 0.983714
vt 0.015756 0.972130
vt 0.019617 0.972130
vt 0.019617 0.975991
vt 0.015756 0.975991
vt 0.019617 0.979853
vt 0.015756 0.979853
vt 0.019617 0.983714
vt 0.015756 0.983714
vt 0.019617 0.987576
vt 0.015756 0.987576
vt 0.011894 0.979853
vt 0.011894 0.983714
vt 0.023479 0.979853
vt 0.023479 0.983714
vt 0.018719 0.972130
vt 0.019617 0.972130
vt 0.019617 0.975991
vt 0.018719 0.975991
vt 0.019617 0.975991
vt 0.018719 0.975991
vt 0.018719 0.979853
vt 0.019617 0.979853
vt 0.019617 0.983714
vt 0.018719 0.983714
vt 0.019617 0.987576
vt 0.018719 0.987576
vt 0.011894 0.979853
vt 0.015756 0.979853
vt 0.015756 0.983714
vt 0.011894 0.983714
vt 0.023479 0.979853
vt 0.023479 0.983714
vt 0.015756 0.987576
vt 0.015756 0.975991
vt 0.015756 0.972130
vt 0.019617 0.979853
vt 0.018719 0.979853
vt 0.019617 0.975991
vt 0.019617 0.975991
vt 0.023479 0.979853
vt 0.019617 0.979853
vt 0.019617 0.979853
vt 0.023479 0.979853
vt 0.015756 0.972130
vt 0.019617 0.972130
vt 0.019617 0.975991
vt 0.015756 0.975991
vt 0.019617 0.979853
vt 0.015756 0.979853
vt 0.019617 0.983714
vt 0.015756 0.983714
vt 0.019617 0.987576
vt 0.015756 0.987576
vt 0.011894 0.979853
vt 0.011894 0.983714
vt 0.019617 0.983714
vt 0.019617 0.979853
vt 0.019617 0.979853
vt 0.019617 0.983714
vt 0.019617 0.979853
vt 0.023479 0.979853
vt 0.023479 0.983714
vt 0.019617 0.983714
vt 0.019617 0.972130
vt 0.019617 0.975991
vt 0.019617 0.987576
vt 0.019617 0.975991
vt 0.019617 0.979853
vt 0.019617 0.979853
vt 0.019617 0.983714
vt 0.019617 0.983714
vt 0.019617 0.979853
vt 0.019617 0.979853
vt 0.019617 0.979853
vt 0.019617 0.983714
vt 0.019617 0.983714
vt 0.019617 0.975991
vt 0.019617 0.979853
vt 0.023479 0.979853
vt 0.015756 0.972130
vt 0.019617 0.972130
vt 0.019617 0.975991
vt 0.015756 0.975991
vt 0.019617 0.979853
vt 0.015756 0.979853
vt 0.019617 0.983714
vt 0.015756 0.983714
vt 0.019617 0.987576
vt 0.015756 0.987576
vt 0.011894 0.979853
vt 0.011894 0.983714
vt 0.023479 0.979853
vt 0.023479 0.983714
vt 0.015756 0.972130
vt 0.019617 0.972130
vt 0.019617 0.975991
vt 0.015756 0.975991
vt 0.019617 0.979853
vt 0.015756 0.979853
vt 0.019617 0.983714
vt 0.015756 0.983714
vt 0.019617 0.987576
vt 0.015756 0.987576
vt 0.011894 0.979853
vt 0.011894 0.983714
vt 0.023479 0.979853
vt 0.023479 0.983714
vt 0.018719 0.972130
vt 0.019617 0.972130
vt 0.019617 0.975991
vt 0.018719 0.975991
vt 0.019617 0.975991
vt 0.018719 0.975991
vt 0.018719 0.979853
vt 0.019617 0.979853
vt 0.019617 0.983714
vt 0.018719 0.983714
vt 0.019617 0.987576
vt 0.018719 0.987576
vt 0.011894 0.979853
vt 0.015756 0.979853
vt 0.015756 0.983714
vt 0.011894 0.983714
vt 0.023479 0.979853
vt 0.023479 0.983714
vt 0.015756 0.987576
vt 0.015756 0.975991
vt 0.015756 0.972130
vt 0.019617 0.979853
vt 0.018719 0.979853
vt 0.019617 0.975991
vt 0.019617 0.975991
vt 0.023479 0.979853
vt 0.019617 0.979853
vt 0.019617 0.979853
vt 0.023479 0.979853
vt 0.015756 0.972130
vt 0.019617 0.972130
vt 0.019617 0.975991
vt 0.015756 0.975991
vt 0.019617 0.979853
vt 0.015756 0.979853
vt 0.019617 0.983714
vt 0.015756 0.983714
vt 0.019617 0.987576
vt 0.015756 0.987576
vt 0.011894 0.979853
vt 0.011894 0.983714
vt 0.023479 0.979853
vt 0.023479 0.983714
vt 0.015756 0.972130
vt 0.019617 0.972130
vt 0.019617 0.975991
vt 0.015756 0.975991
vt 0.019617 0.979853
vt 0.015756 0.979853
vt 0.019617 0.983714
vt 0.015756 0.983714
vt 0.019617 0.987576
vt 0.015756 0.987576
vt 0.011894 0.979853
vt 0.011894 0.983714
vt 0.023479 0.979853
vt 0.023479 0.983714
vt 0.015756 0.972130
vt 0.019617 0.972130
vt 0.019617 0.975991
vt 0.015756 0.975991
vt 0.019617 0.979853
vt 0.015756 0.979853
vt 0.019617 0.983714
vt 0.015756 0.983714
vt 0.019617 0.987576
vt 0.015756 0.987576
vt 0.011894 0.979853
vt 0.011894 0.983714
vt 0.019617 0.983714
vt 0.019617 0.979853
vt 0.019617 0.979853
vt 0.019617 0.983714
vt 0.019617 0.979853
vt 0.023479 0.979853
vt 0.023479 0.983714
vt 0.019617 0.983714
vt 0.019617 0.972130
vt 0.019617 0.975991
vt 0.019617 0.987576
vt 0.019617 0.975991
vt 0.019617 0.979853
vt 0.019617 0.979853
vt 0.019617 0.983714
vt 0.019617 0.983714
vt 0.019617 0.979853
vt 0.019617 0.979853
vt 0.019617 0.979853
vt 0.019617 0.983714
vt 0.019617 0.983714
vt 0.019617 0.975991
vt 0.019617 0.979853
vt 0.023479 0.979853
vt 0.015756 0.972130
vt 0.019617 0.972130
vt 0.019617 0.975991
vt 0.015756 0.975991
vt 0.019617 0.979853
vt 0.015756 0.979853
vt 0.019617 0.983714
vt 0.015756 0.983714
vt 0.019617 0.987576
vt 0.015756 0.987576
vt 0.011894 0.979853
vt 0.011894 0.983714
vt 0.019617 0.983714
vt 0.019617 0.979853
vt 0.019617 0.979853
vt 0.019617 0.983714
vt 0.019617 0.979853
vt 0.023479 0.979853
vt 0.023479 0.983714
vt 0.019617 0.983714
vt 0.019617 0.972130
vt 0.019617 0.975991
vt 0.019617 0.987576
vt 0.019617 0.975991
vt 0.019617 0.979853
vt 0.019617 0.979853
vt 0.019617 0.983714
vt 0.019617 0.983714
vt 0.019617 0.979853
vt 0.019617 0.979853
vt 0.019617 0.979853
vt 0.019617 0.983714
vt 0.019617 0.983714
vt 0.019617 0.975991
vt 0.019617 0.979853
vt 0.023479 0.979853
vn 0.2234 -0.0000 0.9747
vn -0.2234 0.0000 -0.9747
vn 0.9747 0.0000 -0.2234
vn 0.0000 -1.0000 0.0000
vn 0.0000 1.0000 0.0000
vn -0.9747 0.0000 0.2234
vn -1.0000 0.0000 0.0000
vn 0.0000 0.0000 -1.0000
vn 1.0000 -0.0000 0.0000
vn 0.0000 -0.0000 1.0000
vn -0.9109 0.0000 -0.4126
vn 0.4126 0.0000 -0.9109
vn 0.9109 -0.0000 0.4126
vn -0.4126 -0.0000 0.9109
vn 0.9109 0.0000 0.4125
vn -0.9109 -0.0000 -0.4125
vn 0.4125 0.0000 -0.9109
vn 0.9848 0.0000 -0.1737
vn -0.9848 -0.0000 0.1737
vn -0.1737 0.0000 -0.9848
vn 0.1737 -0.0000 0.9848
vn -0.4125 -0.0000 0.9109
vn 0.9292 0.0000 -0.3697
vn 0.3697 -0.0000 0.9292
vn -0.9292 -0.0000 0.3697
vn -0.3697 0.0000 -0.9292
vn -0.3696 0.0000 -0.9292
vn -0.9292 -0.0000 0.3696
vn 0.3696 -0.0000 0.9292
vn 0.9292 0.0000 -0.3696
usemtl None
s 1
f 1/1/1 2/2/1 3/3/1 4/4/1
f 4/4/1 3/3/1 5/5/1 6/6/1
f 7/7/2 8/8/2 9/9/2 10/10/2
f 10/10/3 9/9/3 2/11/3 1/12/3
f 11/13/4 12/14/4 13/15/4 14/16/4
f 8/8/5 3/17/5 2/18/5 9/9/5
f 13/15/3 10/10/3 1/12/3 14/19/3
f 12/14/2 7/7/2 10/10/2 13/15/2
f 11/20/6 4/4/6 7/7/6 12/14/6
f 14/21/1 1/1/1 4/4/1 11/20/1
f 6/6/6 5/5/6 15/22/6 16/23/6
f 7/7/4 4/4/4 6/6/4 16/23/4
f 5/5/1 3/3/1 17/24/1 18/25/1
f 8/8/2 7/7/2 16/23/2 15/22/2
f 17/26/5 19/27/5 20/28/5 18/29/5
f 15/22/6 5/5/6 18/25/6 20/28/6
f 3/17/3 8/8/3 19/27/3 17/26/3
f 8/8/2 15/22/2 20/28/2 19/27/2
f 21/30/7 22/31/7 23/32/7 24/33/7
f 24/33/8 23/32/8 25/34/8 26/35/8
f 26/35/9 25/34/9 27/36/9 28/37/9
f 28/37/10 27/36/10 22/38/10 21/39/10
f 24/40/4 26/35/4 28/37/4 21/41/4
f 25/34/5 23/42/5 22/43/5 27/36/5
f 29/44/7 30/45/7 31/46/7 32/47/7
f 32/47/8 31/46/8 33/48/8 34/49/8
f 34/49/9 33/48/9 35/50/9 36/51/9
f 36/51/10 35/50/10 30/52/10 29/53/10
f 32/54/4 34/49/4 36/51/4 29/55/4
f 33/48/5 31/56/5 30/57/5 35/50/5
f 37/58/7 38/59/7 39/60/7 40/61/7
f 40/61/7 39/60/7 41/62/7 42/63/7
f 43/64/9 44/65/9 45/66/9 46/67/9
f 46/67/10 45/66/10 38/68/10 37/69/10
f 47/70/4 48/71/4 49/72/4 50/73/4
f 44/65/5 39/74/5 38/75/5 45/66/5
f 49/72/10 46/67/10 37/69/10 50/76/10
f 48/71/9 43/64/9 46/67/9 49/72/9
f 47/77/8 40/61/8 43/64/8 48/71/8
f 50/78/7 37/58/7 40/61/7 47/77/7
f 42/63/8 41/62/8 51/79/8 52/80/8
f 43/64/4 40/61/4 42/63/4 52/80/4
f 41/62/7 39/60/7 53/81/7 54/82/7
f 44/65/9 43/64/9 52/80/9 51/79/9
f 53/83/5 55/84/5 56/85/5 54/86/5
f 51/79/8 41/62/8 54/82/8 56/85/8
f 39/74/10 44/65/10 55/84/10 53/83/10
f 44/65/9 51/79/9 56/85/9 55/84/9
f 57/87/11 58/88/11 59/89/11 60/90/11
f 60/90/12 59/89/12 61/91/12 62/92/12
f 62/92/13 61/91/13 63/93/13 64/94/13
f 64/94/14 63/93/14 58/95/14 57/96/14
f 60/97/4 62/92/4 64/94/4 57/98/4
f 65/99/4 66/100/4 67/101/4 68/102/4
f 69/103/5 70/104/5 71/105/5 72/106/5
f 59/89/11 58/88/11 71/107/11 70/108/11
f 58/95/14 63/93/14 72/106/14 71/109/14
f 61/91/4 59/89/4 73/110/4 74/111/4
f 68/102/15 67/101/15 75/112/15 76/113/15
f 77/114/14 65/99/14 68/102/14 76/113/14
f 66/100/12 78/115/12 75/112/12 67/101/12
f 75/112/12 78/115/12 79/116/12 80/117/12
f 69/103/5 72/106/5 77/114/5 78/115/5
f 61/91/12 69/103/12 78/115/12 66/100/12
f 72/106/14 63/93/14 65/99/14 77/114/14
f 63/93/4 61/91/4 66/100/4 65/99/4
f 79/116/5 81/118/5 82/119/5 80/117/5
f 76/113/15 75/112/15 80/117/15 82/119/15
f 78/115/16 77/114/16 81/118/16 79/116/16
f 77/114/14 76/113/14 82/119/14 81/118/14
f 74/111/17 73/110/17 83/120/17 84/121/17
f 69/103/15 61/91/15 74/111/15 84/121/15
f 59/89/11 70/108/11 83/120/11 73/110/11
f 70/104/5 69/103/5 84/121/5 83/122/5
f 85/123/7 86/124/7 87/125/7 88/126/7
f 88/126/8 87/125/8 89/127/8 90/128/8
f 90/128/9 89/127/9 91/129/9 92/130/9
f 92/130/10 91/129/10 86/131/10 85/132/10
f 88/133/4 90/128/4 92/130/4 85/134/4
f 89/127/5 87/135/5 86/136/5 91/129/5
f 93/137/7 94/138/7 95/139/7 96/140/7
f 96/140/8 95/139/8 97/141/8 98/142/8
f 98/142/9 97/141/9 99/143/9 100/144/9
f 100/144/10 99/143/10 94/145/10 93/146/10
f 96/147/4 98/142/4 100/144/4 93/148/4
f 97/141/5 95/149/5 94/150/5 99/143/5
f 101/151/18 102/152/18 103/153/18 104/154/18
f 104/154/18 103/153/18 105/155/18 106/156/18
f 107/157/19 108/158/19 109/159/19 110/160/19
f 110/160/20 109/159/20 102/161/20 101/162/20
f 111/163/4 112/164/4 113/165/4 114/166/4
f 108/158/5 103/167/5 102/168/5 109/159/5
f 113/165/20 110/160/20 101/162/20 114/169/20
f 112/164/19 107/157/19 110/160/19 113/165/19
f 111/170/21 104/154/21 107/157/21 112/164/21
f 114/171/18 101/151/18 104/154/18 111/170/18
f 106/156/21 105/155/21 115/172/21 116/173/21
f 107/157/4 104/154/4 106/156/4 116/173/4
f 105/155/18 103/153/18 117/174/18 118/175/18
f 108/158/19 107/157/19 116/173/19 115/172/19
f 117/176/5 119/177/5 120/178/5 118/179/5
f 115/172/21 105/155/21 118/175/21 120/178/21
f 103/167/20 108/158/20 119/177/20 117/176/20
f 108/158/19 115/172/19 120/178/19 119/177/19
f 121/180/7 122/181/7 123/182/7 124/183/7
f 124/183/8 123/182/8 125/184/8 126/185/8
f 126/185/9 125/184/9 127/186/9 128/187/9
f 128/187/10 127/186/10 122/188/10 121/189/10
f 124/190/4 126/185/4 128/187/4 121/191/4
f 125/184/5 123/192/5 122/193/5 127/186/5
f 129/194/7 130/195/7 131/196/7 132/197/7
f 132/197/8 131/196/8 133/198/8 134/199/8
f 134/199/9 133/198/9 135/200/9 136/201/9
f 136/201/10 135/200/10 130/202/10 129/203/10
f 132/204/4 134/199/4 136/201/4 129/205/4
f 133/198/5 131/206/5 130/207/5 135/200/5
f 137/208/11 138/209/11 139/210/11 140/211/11
f 140/211/12 139/210/12 141/212/12 142/213/12
f 142/213/13 141/212/13 143/214/13 144/215/13
f 144/215/14 143/214/14 138/216/14 137/217/14
f 140/218/4 142/213/4 144/215/4 137/219/4
f 145/220/4 146/221/4 147/222/4 148/223/4
f 149/224/5 150/225/5 151/226/5 152/227/5
f 139/210/11 138/209/11 151/228/11 150/229/11
f 138/216/14 143/214/14 152/227/14 151/230/14
f 141/212/4 139/210/4 153/231/4 154/232/4
f 148/223/13 147/222/13 155/233/13 156/234/13
f 157/235/14 145/220/14 148/223/14 156/234/14
f 146/221/12 158/236/12 155/233/12 147/222/12
f 155/233/12 158/236/12 159/237/12 160/238/12
f 149/224/5 152/227/5 157/235/5 158/236/5
f 141/212/12 149/224/12 158/236/12 146/221/12
f 152/227/14 143/214/14 145/220/14 157/235/14
f 143/214/4 141/212/4 146/221/4 145/220/4
f 159/237/5 161/239/5 162/240/5 160/238/5
f 156/234/13 155/233/13 160/238/13 162/240/13
f 158/236/11 157/235/11 161/239/11 159/237/11
f 157/235/14 156/234/14 162/240/22 161/239/22
f 154/232/17 153/231/17 163/241/17 164/242/17
f 149/224/15 141/212/15 154/232/15 164/242/15
f 139/210/11 150/229/11 163/241/11 153/231/11
f 150/225/5 149/224/5 164/242/5 163/243/5
f 165/244/23 166/245/23 167/246/23 168/247/23
f 168/247/24 167/246/24 169/248/24 170/249/24
f 170/249/25 169/248/25 171/250/25 172/251/25
f 172/251/26 171/250/27 166/252/26 165/253/26
f 168/254/4 170/249/4 172/251/4 165/255/4
f 173/256/4 174/257/4 175/258/4 176/259/4
f 177/260/5 178/261/5 179/262/5 180/263/5
f 167/246/23 166/245/23 179/264/23 178/265/23
f 166/252/26 171/250/27 180/263/27 179/266/26
f 169/248/4 167/246/4 181/267/4 182/268/4
f 176/259/28 175/258/28 183/269/28 184/270/28
f 185/271/27 173/256/27 176/259/27 184/270/27
f 174/257/29 186/272/24 183/269/24 175/258/24
f 183/269/24 186/272/24 187/273/24 188/274/24
f 177/260/5 180/263/5 185/271/5 186/272/5
f 169/248/29 177/260/29 186/272/24 174/257/29
f 180/263/27 171/250/27 173/256/27 185/271/27
f 171/250/4 169/248/4 174/257/4 173/256/4
f 187/273/5 189/275/5 190/276/5 188/274/5
f 184/270/28 183/269/28 188/274/28 190/276/28
f 186/272/23 185/271/23 189/275/23 187/273/23
f 185/271/27 184/270/27 190/276/27 189/275/27
f 182/268/24 181/267/24 191/277/24 192/278/24
f 177/260/28 169/248/28 182/268/28 192/278/28
f 167/246/23 178/265/23 191/277/30 181/267/30
f 178/261/5 177/260/5 192/278/5 191/279/5
